<svg width="149" height="85" viewBox="0 0 149 85" fill="none" xmlns="http://www.w3.org/2000/svg">
<rect x="13.648" y="1.22474" width="138" height="48" rx="19" transform="rotate(15 13.648 1.22474)" stroke="#FFA137" stroke-width="2"/>
<path d="M62.8533 33.9964C61.7474 35.7437 59.8354 36.5504 57.7529 35.9924C55.1971 35.3075 53.7853 32.6247 54.5209 29.8796C55.2564 27.1344 57.8204 25.5169 60.3763 26.2017C62.4994 26.7706 63.7456 28.3945 63.8125 30.4706L61.8787 29.9524C61.6878 28.9881 61.0197 28.1279 59.9378 27.838C58.3962 27.4249 56.7806 28.5864 56.3059 30.3579C55.8276 32.1429 56.6461 33.9565 58.1877 34.3696C59.256 34.6559 60.2855 34.2215 60.933 33.4819L62.8533 33.9964ZM65.7707 34.7926L64.9772 37.7542L63.1921 37.2759L65.0582 30.3116L66.8433 30.7899L66.1947 33.2105L68.9398 33.946L69.5884 31.5254L71.3735 32.0037L69.5074 38.968L67.7223 38.4897L68.5159 35.5282L65.7707 34.7926ZM72.8433 36.4124C72.4029 35.9465 72.152 35.314 72.3622 34.5297C72.7897 32.934 74.1039 32.7353 75.294 33.0542L78.837 34.0036L76.9709 40.9679L75.1859 40.4896L75.8489 38.0149L74.5372 37.6634C73.8746 37.4859 73.4307 37.6278 73.2387 38.3445L73.0575 39.0207C72.9488 39.4264 72.8539 39.6183 72.6841 39.8192L70.872 39.3337C71.0662 39.0958 71.2109 38.7723 71.3015 38.4342L71.5008 37.6904C71.7254 36.852 72.1992 36.5442 72.8433 36.4124ZM74.0866 35.1802C73.9924 35.5318 74.0974 35.9512 74.6653 36.1034L76.2475 36.5274L76.6389 35.0669L75.0432 34.6393C74.4617 34.4835 74.188 34.8015 74.0866 35.1802ZM81.6958 36.4654L79.5727 35.8965L79.9967 34.3143L86.0279 35.9304L85.604 37.5125L83.4809 36.9437L82.0387 42.3258L80.2537 41.8475L81.6958 36.4654ZM96.6744 43.7255C95.8448 45.199 94.3236 45.7915 92.6333 45.3385C90.5372 44.7769 89.471 42.7519 90.0109 40.737C90.5508 38.7221 92.4939 37.4745 94.5899 38.0361C96.2668 38.4854 97.2843 39.7727 97.2697 41.45L95.3629 40.9391C95.2463 40.4006 94.8006 39.8463 94.1515 39.6724C93.1643 39.4079 92.1201 40.1137 91.8193 41.2361C91.5258 42.3314 92.0809 43.4513 93.0681 43.7158C93.7307 43.8933 94.4074 43.6398 94.7677 43.2146L96.6744 43.7255ZM29.1614 35.8474L27.7193 41.2295L25.9343 40.7512L27.8003 33.7869L33.8992 35.4211L32.0331 42.3854L30.2481 41.9071L31.6902 36.525L29.1614 35.8474ZM41.7519 41.2357C41.1975 43.3047 39.286 44.4883 37.4604 43.9991C36.6626 43.7853 36.0292 43.2823 35.6395 42.6271L34.6286 46.4L32.83 45.9181L35.5259 35.857L37.2433 36.3171L37.0476 37.0474C37.7371 36.6379 38.5714 36.4991 39.4099 36.7238C41.2355 37.2129 42.3027 39.1802 41.7519 41.2357ZM39.9669 40.7574C40.2676 39.635 39.6944 38.5827 38.7072 38.3182C37.7201 38.0537 36.6867 38.7189 36.3968 39.8008C36.1033 40.8961 36.662 42.0024 37.6492 42.2669C38.6364 42.5315 39.6625 41.8933 39.9669 40.7574ZM47.0423 38.7544C48.9761 39.2725 50.1344 41.2787 49.5764 43.3612C49.0183 45.4437 47.0195 46.5749 45.0857 46.0568C43.1519 45.5386 41.9999 43.5632 42.5579 41.4806C43.1159 39.3981 45.1086 38.2362 47.0423 38.7544ZM45.5241 44.4205C46.4707 44.6741 47.4589 44.0693 47.7742 42.8928C48.0967 41.6893 47.5505 40.6443 46.6039 40.3907C45.6573 40.137 44.6618 40.7689 44.3393 41.9724C44.0241 43.1489 44.5775 44.1669 45.5241 44.4205ZM49.8636 47.1631L51.7296 40.1988L53.4876 40.6698L52.2991 45.1053L56.1787 41.3909L58.0449 41.8909L56.1788 48.8552L54.4208 48.3842L55.6093 43.9487L51.7297 47.6631L49.8636 47.1631ZM59.7182 47.3252C59.6841 47.9393 60.0497 48.4141 60.8746 48.6351C61.8076 48.8851 62.2508 48.5835 62.3704 48.1373C62.4899 47.691 62.228 47.3165 61.4977 47.1208L60.8081 46.936L61.1921 45.5026L61.8548 45.6801C62.4633 45.8432 62.8152 45.72 62.913 45.3549C63.0217 44.9492 62.6984 44.5872 62.0898 44.4242C61.4948 44.2647 61.1024 44.377 60.7645 44.8807L58.9254 44.3879C59.4174 43.2008 60.7684 42.4323 62.4722 42.8888C64.1491 43.3381 64.9268 44.5466 64.6225 45.6825C64.4558 46.3046 64.0793 46.682 63.6074 46.8744C63.9884 47.2374 64.3412 47.8682 64.0803 48.8418C63.7107 50.2212 62.26 50.6586 60.4885 50.184C58.4195 49.6296 57.6737 48.1398 57.825 46.8179L59.7182 47.3252ZM71.4704 50.822C71.1044 52.1878 69.7612 52.4946 68.5712 52.1758L64.8524 51.1793L66.7185 44.215L70.4238 45.2078C71.5326 45.505 72.335 46.4591 72.0162 47.6492C71.8459 48.2847 71.4693 48.6622 70.9975 48.8546C71.3785 49.2176 71.7313 49.8484 71.4704 50.822ZM68.0941 46.2214L67.8114 47.2762L69.6235 47.7617C69.9886 47.8596 70.227 47.6191 70.2922 47.3757C70.3574 47.1322 70.2848 46.8084 69.8926 46.7033L68.0941 46.2214ZM69.7677 50.0904C69.8619 49.7388 69.7668 49.3365 69.1853 49.1807L67.4273 48.7096L67.0505 50.116L68.822 50.5907C69.4305 50.7537 69.6735 50.442 69.7677 50.0904ZM77.2445 46.847C79.1783 47.3652 80.3365 49.3713 79.7785 51.4538C79.2205 53.5364 77.2216 54.6676 75.2878 54.1494C73.354 53.6313 72.2021 51.6558 72.7601 49.5733C73.3181 47.4907 75.3107 46.3289 77.2445 46.847ZM75.7263 52.5131C76.6729 52.7668 77.6611 52.1619 77.9763 50.9854C78.2988 49.7819 77.7527 48.7369 76.8061 48.4833C75.8595 48.2297 74.864 48.8615 74.5415 50.0651C74.2263 51.2416 74.7797 52.2595 75.7263 52.5131ZM80.5708 53.6953L83.5546 48.7262L87.1111 49.6792L87.17 55.4635L87.7785 55.6266L86.9886 58.5746L85.2306 58.1035L85.5966 56.7377L81.2963 55.5855L80.9303 56.9513L79.1724 56.4802L79.9623 53.5322L80.5708 53.6953ZM85.3444 54.9744L85.3213 50.8954L84.4694 50.6671L82.3964 54.1845L85.3444 54.9744ZM95.6407 56.9071C94.811 58.3806 93.2898 58.9731 91.5995 58.5201C89.5034 57.9585 88.4372 55.9335 88.9771 53.9186C89.517 51.9037 91.4601 50.6561 93.5562 51.2177C95.233 51.667 96.2505 52.9542 96.2359 54.6316L94.3291 54.1207C94.2126 53.5822 93.7668 53.0279 93.1177 52.854C92.1305 52.5895 91.0863 53.2953 90.7855 54.4177C90.492 55.513 91.0471 56.6328 92.0343 56.8974C92.6969 57.0749 93.3736 56.8214 93.7339 56.3962L95.6407 56.9071ZM99.2825 54.6363L97.1594 54.0674L97.5834 52.4852L103.615 54.1013L103.191 55.6835L101.068 55.1146L99.6254 60.4967L97.8404 60.0184L99.2825 54.6363ZM109.53 61.0201C109.164 62.3859 107.821 62.6927 106.631 62.3739L102.912 61.3774L104.778 54.4131L108.484 55.4059C109.592 55.703 110.395 56.6572 110.076 57.8472C109.906 58.4828 109.529 58.8602 109.057 59.0527C109.438 59.4156 109.791 60.0464 109.53 61.0201ZM106.154 56.4195L105.871 57.4743L107.683 57.9598C108.048 58.0576 108.287 57.8171 108.352 57.5737C108.417 57.3303 108.345 57.0065 107.952 56.9014L106.154 56.4195ZM107.827 60.2885C107.922 59.9369 107.827 59.5346 107.245 59.3787L105.487 58.9077L105.11 60.3141L106.882 60.7888C107.49 60.9518 107.733 60.6401 107.827 60.2885ZM115.041 64.6273C115.007 64.4297 115.011 64.1989 115.039 63.9311C114.449 64.2947 113.666 64.4038 112.692 64.1429C111.218 63.7479 110.065 62.6418 110.471 61.1273C110.891 59.5586 112.312 59.5044 113.89 59.7822C115.082 59.9857 115.943 60.0715 116.095 59.5035C116.193 59.1384 115.799 58.7141 115.001 58.5003C114.366 58.33 113.559 58.4183 113.238 58.9698L111.453 58.4915C111.984 57.2134 113.519 56.5668 115.345 57.056C118.171 57.8133 117.898 59.6969 117.75 60.2513L116.779 63.8754C116.688 64.2135 116.655 64.7699 116.677 65.0657L115.041 64.6273ZM115.536 61.8611L115.71 61.212C115.266 61.354 114.652 61.3198 113.9 61.2053C112.995 61.0645 112.404 61.1088 112.266 61.6227C112.161 62.0149 112.548 62.4085 113.265 62.6006C114.333 62.8868 115.297 62.7536 115.536 61.8611Z" fill="#FFA137"/>
</svg>
