<svg width="50" height="50" viewBox="0 0 50 50" fill="none" xmlns="http://www.w3.org/2000/svg">
<rect x="-1.5" y="1.5" width="47" height="47" rx="23.5" transform="matrix(-1 0 0 1 47 0)" stroke="#6BBBF6" stroke-width="3"/>
<path d="M33.7071 24.2929C34.0976 24.6834 34.0976 25.3166 33.7071 25.7071L27.3431 32.0711C26.9526 32.4616 26.3195 32.4616 25.9289 32.0711C25.5384 31.6805 25.5384 31.0474 25.9289 30.6569L31.5858 25L25.9289 19.3431C25.5384 18.9526 25.5384 18.3195 25.9289 17.9289C26.3195 17.5384 26.9526 17.5384 27.3431 17.9289L33.7071 24.2929ZM18 25L18 24L33 24L33 25L33 26L18 26L18 25Z" fill="#6BBBF6"/>
</svg>
