<svg width="50" height="50" viewBox="0 0 50 50" fill="none" xmlns="http://www.w3.org/2000/svg">
<rect x="1.5" y="1.5" width="47" height="47" rx="23.5" stroke="#6BBBF6" stroke-width="3"/>
<path d="M16.2929 24.2929C15.9024 24.6834 15.9024 25.3166 16.2929 25.7071L22.6569 32.0711C23.0474 32.4616 23.6805 32.4616 24.0711 32.0711C24.4616 31.6805 24.4616 31.0474 24.0711 30.6569L18.4142 25L24.0711 19.3431C24.4616 18.9526 24.4616 18.3195 24.0711 17.9289C23.6805 17.5384 23.0474 17.5384 22.6569 17.9289L16.2929 24.2929ZM32 25L32 24L17 24L17 25L17 26L32 26L32 25Z" fill="#6BBBF6"/>
</svg>
