<svg width="18" height="17" viewBox="0 0 18 17" fill="none" xmlns="http://www.w3.org/2000/svg">
<path d="M0.974027 2.31284C0.485871 1.82468 0.485871 1.03323 0.974027 0.545072C1.46218 0.0569161 2.25364 0.0569161 2.74179 0.545072L0.974027 2.31284ZM17.25 15.5711C17.25 16.2614 16.6904 16.8211 16 16.8211L4.75004 16.8211C4.05969 16.8211 3.50004 16.2614 3.50004 15.5711C3.50004 14.8807 4.05969 14.3211 4.75004 14.3211H14.75V4.32109C14.75 3.63073 15.3097 3.07109 16 3.07109C16.6904 3.07109 17.25 3.63073 17.25 4.32109L17.25 15.5711ZM1.85791 1.42896L2.74179 0.545072L16.8839 14.6872L16 15.5711L15.1162 16.455L0.974027 2.31284L1.85791 1.42896Z" fill="#2877C2"/>
</svg>
