<svg width="30" height="30" viewBox="0 0 30 30" fill="none" xmlns="http://www.w3.org/2000/svg">
<rect width="30" height="30" rx="15" fill="#2683C5"/>
<path d="M4.87061 13.1442H25.1283V14.3813C25.1283 19.9754 20.5935 24.5102 14.9995 24.5102C9.40545 24.5102 4.87061 19.9754 4.87061 14.3813V13.1442Z" fill="#9BC3FF"/>
<path d="M16.1106 7.69023C15.414 7.32863 14.585 7.32863 13.8883 7.69023L5.56639 12.01C5.1389 12.2319 4.87061 12.6735 4.87061 13.1551C4.87061 13.6657 5.17165 14.1282 5.63848 14.3349L14.0945 18.0788C14.6708 18.3339 15.3281 18.3339 15.9044 18.0788L24.3605 14.3349C24.8273 14.1282 25.1283 13.6657 25.1283 13.1551C25.1283 12.6735 24.86 12.2319 24.4325 12.01L16.1106 7.69023Z" fill="#67A9FF"/>
<path opacity="0.8" d="M9.20098 5.41241C8.51774 5.41241 7.96387 5.96629 7.96387 6.64953V15.3642L14.095 18.0788C14.6713 18.3339 15.3286 18.3339 15.9049 18.0788L22.036 15.3642V6.64953C22.036 5.96629 21.4822 5.41241 20.7989 5.41241H9.20098Z" fill="white"/>
<rect x="9.81934" y="7.5" width="4.94845" height="1.39175" rx="0.695876" fill="#5B89ED"/>
<path opacity="0.9" d="M9.81934 10.8248C9.81934 10.4405 10.1309 10.129 10.5152 10.129H19.4843C19.8686 10.129 20.1802 10.4405 20.1802 10.8248C20.1802 11.2092 19.8686 11.5207 19.4843 11.5207H10.5152C10.1309 11.5207 9.81934 11.2092 9.81934 10.8248Z" fill="#5B89ED"/>
<path opacity="0.8" d="M9.81934 13.4536C9.81934 13.0693 10.1309 12.7578 10.5152 12.7578H17.3967C17.781 12.7578 18.0925 13.0693 18.0925 13.4536C18.0925 13.8379 17.781 14.1495 17.3967 14.1495H10.5152C10.1309 14.1495 9.81934 13.8379 9.81934 13.4536Z" fill="#5B89ED"/>
<path opacity="0.6" d="M11.1578 16.7783H15.541C15.7118 16.7783 15.8503 16.6398 15.8503 16.469V15.6958C15.8503 15.525 15.7118 15.3865 15.541 15.3865H10.1286C9.9578 15.3865 9.81934 15.525 9.81934 15.6958V16.1857L11.1578 16.7783Z" fill="#5B89ED"/>
</svg>
