<svg width="40" height="40" viewBox="0 0 40 40" fill="none" xmlns="http://www.w3.org/2000/svg">
<rect width="40" height="40" rx="20" fill="#2683C5"/>
<path d="M29.375 26.4344C29.375 26.7719 29.2999 27.1187 29.1403 27.4562C28.9806 27.7937 28.7741 28.1125 28.5018 28.4125C28.0418 28.9188 27.5348 29.2844 26.962 29.5188C26.3986 29.7531 25.7883 29.875 25.1311 29.875C24.1734 29.875 23.15 29.65 22.0703 29.1906C20.9905 28.7312 19.9108 28.1125 18.8404 27.3344C17.7607 26.5469 16.7373 25.675 15.7608 24.7094C14.7937 23.7344 13.9206 22.7125 13.1413 21.6437C12.3714 20.575 11.7517 19.5062 11.301 18.4469C10.8503 17.3781 10.625 16.3562 10.625 15.3812C10.625 14.7437 10.7377 14.1344 10.963 13.5719C11.1883 13 11.5451 12.475 12.0428 12.0062C12.6437 11.4156 13.3009 11.125 13.9957 11.125C14.2586 11.125 14.5215 11.1812 14.7562 11.2937C15.0003 11.4062 15.2163 11.575 15.3853 11.8187L17.5635 14.8844C17.7325 15.1188 17.8546 15.3344 17.9391 15.5406C18.0236 15.7375 18.0705 15.9344 18.0705 16.1125C18.0705 16.3375 18.0048 16.5625 17.8734 16.7781C17.7513 16.9937 17.5729 17.2187 17.3476 17.4437L16.634 18.1844C16.5307 18.2875 16.4838 18.4094 16.4838 18.5594C16.4838 18.6344 16.4932 18.7 16.512 18.775C16.5401 18.85 16.5683 18.9062 16.5871 18.9625C16.7561 19.2719 17.0471 19.675 17.4602 20.1625C17.8828 20.65 18.3334 21.1469 18.8217 21.6437C19.3286 22.1406 19.8169 22.6 20.3146 23.0219C20.8028 23.4344 21.2065 23.7156 21.5257 23.8844C21.5727 23.9031 21.629 23.9312 21.6947 23.9594C21.7698 23.9875 21.845 23.9969 21.9295 23.9969C22.0891 23.9969 22.2111 23.9406 22.3144 23.8375L23.028 23.1344C23.2627 22.9 23.488 22.7219 23.704 22.6094C23.9199 22.4781 24.1359 22.4125 24.3706 22.4125C24.5491 22.4125 24.7368 22.45 24.9433 22.5344C25.1499 22.6187 25.3658 22.7406 25.6006 22.9L28.7083 25.1031C28.9525 25.2719 29.1215 25.4688 29.2248 25.7031C29.3186 25.9375 29.375 26.1719 29.375 26.4344Z" stroke="white" stroke-width="2" stroke-miterlimit="10"/>
</svg>
