<svg width="30" height="30" viewBox="0 0 30 30" fill="none" xmlns="http://www.w3.org/2000/svg">
<path d="M13.5 0C20.9562 0.000142622 26.999 6.04433 26.999 13.5C26.999 16.6877 25.8935 19.6163 24.0459 21.9258L29.5596 27.4385C30.1459 28.0241 30.1457 28.9738 29.5596 29.5596C28.9746 30.1455 28.0235 30.1455 27.4385 29.5596L21.9248 24.0469C19.6156 25.8939 16.6873 26.999 13.5 26.999C6.04373 26.999 0.000142044 20.9556 0 13.5C0 6.04424 6.04365 0 13.5 0ZM13.5 3C7.70111 3 3 7.70111 3 13.5C3.00014 19.2988 7.7012 24 13.5 24C16.3375 23.9999 18.9093 22.871 20.7988 21.042C20.8341 20.9978 20.8721 20.955 20.9131 20.9141C20.9542 20.8729 20.9975 20.8342 21.042 20.7988C22.871 18.9093 23.9999 16.3375 24 13.5C24 7.7012 19.2988 3.00014 13.5 3Z" fill="#6BBBF6"/>
</svg>
